<mxfile host="app.diagrams.net" modified="2021-07-15T07:59:36.897Z" agent="5.0 (Windows NT 10.0; Win64; x64) AppleWebKit/537.36 (KHTML, like Gecko) Chrome/91.0.4472.124 Safari/537.36" etag="ea_1uSOxeaAS0iTI3IMM" version="14.8.5" type="github">
  <diagram id="OVPr88sG9Dwkc0haUpR-" name="Page-1">
    <mxGraphModel dx="965" dy="517" grid="1" gridSize="10" guides="1" tooltips="1" connect="1" arrows="1" fold="1" page="1" pageScale="1" pageWidth="827" pageHeight="1169" math="0" shadow="0">
      <root>
        <mxCell id="0" />
        <mxCell id="1" parent="0" />
        <mxCell id="EHof522Og7UNFE8TgKNa-1" value="A" style="rounded=1;whiteSpace=wrap;html=1;fillColor=#dae8fc;strokeColor=#6c8ebf;" vertex="1" parent="1">
          <mxGeometry x="160" y="300" width="60" height="30" as="geometry" />
        </mxCell>
        <mxCell id="EHof522Og7UNFE8TgKNa-3" value="" style="outlineConnect=0;dashed=0;verticalLabelPosition=bottom;verticalAlign=top;align=center;html=1;shape=mxgraph.aws3.disk;fillColor=#7D7C7C;gradientColor=none;" vertex="1" parent="1">
          <mxGeometry x="353" y="120" width="121.63" height="120" as="geometry" />
        </mxCell>
        <mxCell id="EHof522Og7UNFE8TgKNa-8" value="&lt;font style=&quot;font-size: 19px&quot;&gt;raid 01&lt;/font&gt;" style="text;html=1;strokeColor=none;fillColor=none;align=center;verticalAlign=middle;whiteSpace=wrap;rounded=0;" vertex="1" parent="1">
          <mxGeometry x="365" y="280" width="96.25" height="30" as="geometry" />
        </mxCell>
        <mxCell id="EHof522Og7UNFE8TgKNa-13" style="edgeStyle=orthogonalEdgeStyle;rounded=0;orthogonalLoop=1;jettySize=auto;html=1;exitX=0.5;exitY=0;exitDx=0;exitDy=0;exitPerimeter=0;entryX=0.5;entryY=1;entryDx=0;entryDy=0;entryPerimeter=0;" edge="1" parent="1" source="EHof522Og7UNFE8TgKNa-11" target="EHof522Og7UNFE8TgKNa-3">
          <mxGeometry relative="1" as="geometry" />
        </mxCell>
        <mxCell id="EHof522Og7UNFE8TgKNa-11" value="" style="outlineConnect=0;dashed=0;verticalLabelPosition=bottom;verticalAlign=top;align=center;html=1;shape=mxgraph.aws3.disk;fillColor=#7D7C7C;gradientColor=none;" vertex="1" parent="1">
          <mxGeometry x="240" y="280" width="121.63" height="120" as="geometry" />
        </mxCell>
        <mxCell id="EHof522Og7UNFE8TgKNa-14" style="edgeStyle=orthogonalEdgeStyle;rounded=0;orthogonalLoop=1;jettySize=auto;html=1;exitX=0.5;exitY=0;exitDx=0;exitDy=0;exitPerimeter=0;entryX=0.5;entryY=1;entryDx=0;entryDy=0;entryPerimeter=0;" edge="1" parent="1" source="EHof522Og7UNFE8TgKNa-12" target="EHof522Og7UNFE8TgKNa-3">
          <mxGeometry relative="1" as="geometry" />
        </mxCell>
        <mxCell id="EHof522Og7UNFE8TgKNa-12" value="" style="outlineConnect=0;dashed=0;verticalLabelPosition=bottom;verticalAlign=top;align=center;html=1;shape=mxgraph.aws3.disk;fillColor=#7D7C7C;gradientColor=none;" vertex="1" parent="1">
          <mxGeometry x="474.63" y="280" width="121.63" height="120" as="geometry" />
        </mxCell>
        <mxCell id="EHof522Og7UNFE8TgKNa-15" value="B" style="rounded=1;whiteSpace=wrap;html=1;fillColor=#d5e8d4;strokeColor=#82b366;" vertex="1" parent="1">
          <mxGeometry x="620" y="300" width="60" height="30" as="geometry" />
        </mxCell>
        <mxCell id="EHof522Og7UNFE8TgKNa-16" value="D" style="rounded=1;whiteSpace=wrap;html=1;fillColor=#f8cecc;strokeColor=#b85450;" vertex="1" parent="1">
          <mxGeometry x="620" y="330" width="60" height="30" as="geometry" />
        </mxCell>
        <mxCell id="EHof522Og7UNFE8TgKNa-17" value="C" style="rounded=1;whiteSpace=wrap;html=1;fillColor=#ffe6cc;strokeColor=#d79b00;" vertex="1" parent="1">
          <mxGeometry x="160" y="330" width="60" height="30" as="geometry" />
        </mxCell>
      </root>
    </mxGraphModel>
  </diagram>
</mxfile>
